<svg width="563" height="563" viewBox="0 0 563 563" fill="none" xmlns="http://www.w3.org/2000/svg">
<g clip-path="url(#clip0_106_170)">
<path fill-rule="evenodd" clip-rule="evenodd" d="M165.445 1.689C195.463 0.30709 205.034 0 281.5 0C357.966 0 367.537 0.332681 397.529 1.689C427.522 3.04532 447.994 7.83082 465.908 14.766C484.666 21.8546 501.684 32.9355 515.759 47.2664C530.09 61.3158 541.145 78.3082 548.208 97.0919C555.169 115.006 559.929 135.478 561.311 165.42C562.693 195.489 563 205.06 563 281.5C563 357.966 562.667 367.537 561.311 397.555C559.955 427.496 555.169 447.969 548.208 465.882C541.145 484.669 530.072 501.689 515.759 515.759C501.684 530.09 484.666 541.145 465.908 548.208C447.994 555.169 427.522 559.929 397.58 561.311C367.537 562.693 357.966 563 281.5 563C205.034 563 195.463 562.667 165.445 561.311C135.504 559.955 115.031 555.169 97.1175 548.208C78.3317 541.144 61.3112 530.071 47.2408 515.759C32.9196 501.701 21.8371 484.689 14.766 465.908C7.83082 447.994 3.07091 427.522 1.689 397.58C0.30709 367.511 0 357.94 0 281.5C0 205.034 0.332681 195.463 1.689 165.471C3.04532 135.478 7.83082 115.006 14.766 97.0919C21.8475 78.3103 32.9385 61.2982 47.2664 47.2408C61.3168 32.9227 78.3203 21.8404 97.0919 14.766C115.006 7.83082 135.478 3.07091 165.42 1.689H165.445ZM395.252 52.359C365.566 51.0027 356.66 50.7212 281.5 50.7212C206.34 50.7212 197.434 51.0027 167.748 52.359C140.289 53.613 125.395 58.1937 115.466 62.0579C102.338 67.1761 92.9462 73.2412 83.0937 83.0937C73.7541 92.1798 66.5666 103.241 62.0579 115.466C58.1937 125.395 53.613 140.289 52.359 167.748C51.0027 197.434 50.7212 206.34 50.7212 281.5C50.7212 356.66 51.0027 365.566 52.359 395.252C53.613 422.711 58.1937 437.605 62.0579 447.534C66.5619 459.741 73.753 470.822 83.0937 479.906C92.1785 489.247 103.259 496.438 115.466 500.942C125.395 504.806 140.289 509.387 167.748 510.641C197.434 511.997 206.314 512.279 281.5 512.279C356.686 512.279 365.566 511.997 395.252 510.641C422.711 509.387 437.605 504.806 447.534 500.942C460.662 495.824 470.054 489.759 479.906 479.906C489.247 470.822 496.438 459.741 500.942 447.534C504.806 437.605 509.387 422.711 510.641 395.252C511.997 365.566 512.279 356.66 512.279 281.5C512.279 206.34 511.997 197.434 510.641 167.748C509.387 140.289 504.806 125.395 500.942 115.466C495.824 102.338 489.759 92.9462 479.906 83.0937C470.82 73.7548 459.759 66.5673 447.534 62.0579C437.605 58.1937 422.711 53.613 395.252 52.359ZM245.545 368.279C265.625 376.638 287.984 377.766 308.804 371.471C329.623 365.175 347.611 351.847 359.696 333.763C371.78 315.678 377.211 293.959 375.062 272.316C372.912 250.672 363.314 230.445 347.908 215.092C338.088 205.277 326.213 197.762 313.139 193.087C300.065 188.413 286.117 186.695 272.3 188.058C258.483 189.421 245.139 193.83 233.231 200.969C221.322 208.107 211.144 217.798 203.43 229.342C195.716 240.886 190.657 253.997 188.618 267.731C186.579 281.465 187.611 295.48 191.639 308.768C195.666 322.055 202.59 334.284 211.911 344.574C221.232 354.865 232.719 362.961 245.545 368.279ZM179.188 179.188C192.623 165.752 208.574 155.094 226.129 147.822C243.684 140.551 262.499 136.808 281.5 136.808C300.501 136.808 319.316 140.551 336.871 147.822C354.426 155.094 370.377 165.752 383.812 179.188C397.248 192.623 407.906 208.574 415.178 226.129C422.449 243.684 426.192 262.499 426.192 281.5C426.192 300.501 422.449 319.316 415.178 336.871C407.906 354.426 397.248 370.377 383.812 383.812C356.677 410.947 319.875 426.192 281.5 426.192C243.125 426.192 206.322 410.947 179.188 383.812C152.053 356.677 136.808 319.875 136.808 281.5C136.808 243.125 152.053 206.322 179.188 179.188ZM458.282 158.357C461.612 155.216 464.277 151.439 466.121 147.249C467.964 143.06 468.949 138.543 469.015 133.967C469.082 129.39 468.23 124.846 466.509 120.605C464.788 116.364 462.234 112.511 458.998 109.274C455.761 106.038 451.908 103.483 447.667 101.763C443.425 100.042 438.882 99.1897 434.305 99.2565C429.728 99.3232 425.212 100.308 421.022 102.151C416.833 103.995 413.056 106.66 409.915 109.99C403.807 116.465 400.463 125.066 400.592 133.967C400.722 142.867 404.316 151.367 410.61 157.662C416.905 163.956 425.404 167.55 434.305 167.679C443.206 167.809 451.807 164.465 458.282 158.357Z" fill="white"/>
</g>
<defs>
<clipPath id="clip0_106_170">
<rect width="563" height="563" fill="white"/>
</clipPath>
</defs>
</svg>
