<svg width="142" height="34" viewBox="0 0 142 34" fill="none" xmlns="http://www.w3.org/2000/svg">
<path fill-rule="evenodd" clip-rule="evenodd" d="M39.9348 0C30.5042 0 26.4639 3.53502 26.4639 10.941C26.4639 18.3752 30.5357 21.9416 39.9348 21.9416C49.3339 21.9416 53.4058 18.3156 53.4058 10.941C53.4058 3.56642 49.3655 0 39.9348 0ZM39.938 6.70586C44.6533 6.70586 45.4481 8.71512 45.4481 10.941C45.4481 13.1983 44.6218 15.2389 39.938 15.2389C35.2542 15.2389 34.4279 13.1951 34.4279 10.941C34.4279 8.68686 35.2227 6.70586 39.938 6.70586ZM19.5962 27.6141C24.4629 27.6141 26.5761 24.8106 26.5761 21.307C26.5761 18.99 25.2293 17.0404 23.3621 15.6999C24.4029 14.4787 25.0464 13.0785 25.0464 11.7065C25.0464 8.47602 23.545 6.28154 18.6783 6.28154H0V27.6141H19.5962ZM15.3098 13.7786H7.96083V11.4616H15.3098C16.1046 11.4616 17.0855 11.4616 17.0855 12.6201C17.0855 13.7786 16.1046 13.7786 15.3098 13.7786ZM16.8395 19.5708C17.6343 19.5708 18.6152 19.5708 18.6152 20.6979C18.6152 21.825 17.6343 21.825 16.8395 21.825H7.96083V19.5708H16.8395H16.8395ZM87.2617 27.6141H79.3008V17.4643L73.4532 27.6141H68.249L62.4014 17.4643V27.6141H54.4406V6.28154H64.2371L70.8511 18.472L77.4652 6.28154H87.2617V27.6141ZM108.08 27.6141C112.947 27.6141 115.06 24.8106 115.06 21.307C115.06 18.99 113.714 17.0404 111.846 15.6999C112.887 14.4787 113.531 13.0785 113.531 11.7065C113.531 8.47602 112.029 6.28154 107.163 6.28154H88.4843V27.6141H108.08ZM103.794 13.7786H96.4451V11.4616H103.794C104.589 11.4616 105.57 11.4616 105.57 12.6201C105.57 13.7786 104.589 13.7786 103.794 13.7786ZM105.324 19.5708C106.119 19.5708 107.099 19.5708 107.099 20.6979C107.099 21.825 106.119 21.825 105.324 21.825H96.4451V19.5708H105.324ZM115.058 16.9187C115.058 9.51276 119.098 5.97773 128.529 5.97773C137.96 5.97773 142 9.54415 142 16.9187C142 24.2933 137.928 27.9194 128.529 27.9194C119.13 27.9194 115.058 24.3529 115.058 16.9187ZM134.042 16.9187C134.042 14.6929 133.248 12.6836 128.532 12.6836C123.817 12.6836 123.022 14.6646 123.022 16.9187C123.022 19.1728 123.848 21.2166 128.532 21.2166C133.216 21.2166 134.042 19.176 134.042 16.9187ZM61.9835 31.4607C61.9267 30.3494 61.1886 29.8564 59.7756 29.8564V29.8596C58.2207 29.8596 57.5552 30.4372 57.5552 31.6648C57.5552 32.8923 58.2207 33.4794 59.7756 33.4794C61.195 33.4794 61.9267 32.9802 61.9835 31.8657H60.6398C60.5894 32.2048 60.3307 32.3743 59.7756 32.3743C59.0029 32.3743 58.8673 32.0384 58.8673 31.6648C58.8673 31.2912 58.9966 30.9647 59.7756 30.9647C60.3307 30.9647 60.5894 31.1279 60.6398 31.4607H61.9835ZM65.7695 32.3173V33.4224H62.1329V29.903H63.445V32.3141H65.7664L65.7695 32.3173ZM65.9228 31.6615C65.9228 32.889 66.5883 33.4761 68.1433 33.4761C69.6919 33.4761 70.3637 32.8827 70.3637 31.6615V29.9065H69.0516V31.6615C69.0516 32.0351 68.916 32.371 68.1433 32.371C67.3705 32.371 67.2349 32.0382 67.2349 31.6615V29.9065H65.9228V31.6615ZM74.9475 32.3832C74.9475 32.9609 74.6006 33.4224 73.7963 33.4224H70.5634V29.903H73.6417C74.446 29.903 74.692 30.2641 74.692 30.7978C74.692 31.0238 74.5848 31.2561 74.4145 31.4571C74.7235 31.6768 74.9443 32.0002 74.9443 32.3832H74.9475ZM71.8786 31.1431H73.0897C73.2222 31.1431 73.3831 31.1431 73.3831 30.9516C73.3831 30.7601 73.2222 30.7601 73.0897 30.7601H71.8786V31.1431ZM73.6354 32.2827C73.6354 32.0975 73.4746 32.0975 73.3421 32.0975H71.8786V32.468H73.3421C73.4746 32.468 73.6354 32.468 73.6354 32.2827ZM78.3347 33.4224C79.139 33.4224 79.486 32.9609 79.486 32.3832C79.486 32.0002 79.2652 31.6768 78.9561 31.4571C79.1264 31.2561 79.2336 31.0238 79.2336 30.7978C79.2336 30.2641 78.9876 29.903 78.1833 29.903H75.1018V33.4224H78.3347ZM77.6282 31.1431H76.4171V30.7601H77.6282C77.7607 30.7601 77.9215 30.7601 77.9215 30.9516C77.9215 31.1431 77.7607 31.1431 77.6282 31.1431ZM77.8806 32.0975C78.013 32.0975 78.1739 32.0975 78.1739 32.2827C78.1739 32.468 78.013 32.468 77.8806 32.468H76.4171V32.0975H77.8806ZM80.9497 33.4259H79.6376V29.9065H80.9497V33.4259ZM85.7072 33.4259V29.9065H84.3951V31.9817L82.8717 29.9065H81.1559V33.4259H82.468V31.3507L83.9914 33.4259H85.7072ZM87.9497 31.5109H90.2395V33.426H89.4825L89.3879 32.9174C89.0883 33.2628 88.6246 33.4762 87.8834 33.4762C86.5808 33.4762 85.8144 32.8892 85.8144 31.6616C85.8144 30.4341 86.5808 29.8564 88.0348 29.8564C89.4888 29.8564 90.1859 30.3493 90.2427 31.31H88.899C88.8486 31.1279 88.5899 30.9647 88.0348 30.9647C87.2558 30.9647 87.1264 31.2912 87.1264 31.7119C87.1264 32.1326 87.2621 32.5219 88.0348 32.5219C88.5395 32.5219 88.8486 32.4528 88.899 32.2142H87.9497V31.5109ZM96.1762 33.0187L96.1768 33.019L96.177 33.0191L96.1772 33.0192C96.4419 33.1479 96.7247 33.2854 97.0283 33.4258H97.0315L97.5361 32.6127C97.3282 32.5232 97.1328 32.4412 96.9499 32.3644L96.8832 32.3364C97.0094 32.1732 97.1261 31.9973 97.2365 31.8027L96.1546 31.3914C96.0443 31.561 95.9276 31.7179 95.8077 31.8529C95.5491 31.7336 95.3314 31.6238 95.1548 31.5327C95.8329 31.3161 96.2303 31.0586 96.2303 30.6631C96.2303 30.1356 95.5648 29.8594 94.7164 29.8594C93.7103 29.8594 93.1804 30.1357 93.1804 30.7133C93.1804 30.9833 93.2908 31.2219 93.5336 31.4668C93.0037 31.5704 92.4076 31.8027 92.4076 32.4557C92.4076 33.1087 93.029 33.476 94.2906 33.476C95.0602 33.476 95.6595 33.3253 96.1546 33.0083L96.1762 33.0187ZM94.0036 31.8467C94.2527 32.0162 94.565 32.1983 94.9435 32.3992C94.7763 32.4432 94.5902 32.4683 94.3821 32.4683C93.8112 32.4683 93.6188 32.3427 93.6188 32.1669C93.6188 32.0288 93.7513 31.9377 94.0036 31.8467ZM94.6502 31.2251C94.4515 31.0775 94.3915 30.9739 94.3915 30.8828H94.3947C94.3947 30.7447 94.4988 30.6631 94.7164 30.6631C94.934 30.6631 95.0192 30.7416 95.0192 30.8828C95.0192 31.0335 94.893 31.1403 94.6502 31.2251ZM101.93 29.8564C103.343 29.8564 104.082 30.3494 104.138 31.4607H102.795C102.744 31.1279 102.486 30.9647 101.93 30.9647C101.151 30.9647 101.022 31.2912 101.022 31.6648C101.022 32.0384 101.158 32.3743 101.93 32.3743C102.486 32.3743 102.744 32.2048 102.795 31.8657H104.138C104.082 32.9802 103.35 33.4794 101.93 33.4794C100.376 33.4794 99.71 32.8923 99.71 31.6648C99.71 30.4373 100.376 29.8596 101.93 29.8596V29.8564ZM106.464 29.8564C104.909 29.8564 104.243 30.4404 104.243 31.6616C104.243 32.8892 104.915 33.4762 106.464 33.4762C108.012 33.4762 108.684 32.8797 108.684 31.6616C108.684 30.4435 108.019 29.8564 106.464 29.8564ZM106.467 30.9615C107.243 30.9615 107.375 31.2943 107.375 31.6616C107.375 32.0352 107.24 32.3712 106.467 32.3712C105.694 32.3712 105.558 32.0352 105.558 31.6616C105.558 31.288 105.691 30.9615 106.467 30.9615ZM114.252 33.4259H112.939V31.7525L111.974 33.4259H111.116L110.151 31.7525V33.4259H108.839V29.9065H110.454L111.545 31.9158L112.637 29.9065H114.252V33.4259ZM118.556 33.4259H119.868V29.9065H118.254L117.162 31.9158L116.071 29.9065H114.456V33.4259H115.768V31.7525L116.733 33.4259H117.591L118.556 31.7525V33.4259ZM122.293 33.4761C120.738 33.4761 120.073 32.889 120.073 31.6615V29.9065H121.385V31.6615C121.385 32.0382 121.521 32.371 122.293 32.371C123.066 32.371 123.202 32.0351 123.202 31.6615V29.9065H124.514V31.6615C124.514 32.8827 123.842 33.4761 122.293 33.4761ZM129.272 33.4259V29.9065H127.96V31.9817L126.437 29.9065H124.721V33.4259H126.033V31.3507L127.557 33.4259H129.272ZM130.784 33.4259H129.472V29.9065H130.784V33.4259ZM133.766 31.0116H135.28H135.283V29.9065H130.94V31.0116H132.454V33.4227H133.766V31.0116ZM135.384 29.9065H136.898L137.838 31.2125L138.778 29.9065H140.292L138.494 32.2674V33.4227H137.182V32.2674L135.384 29.9065ZM34.4247 33.9499V34.0001H26.4639V33.9499C26.4639 26.5439 30.5357 23.0089 39.9348 23.0089C49.3339 23.0089 53.4058 26.5753 53.4058 33.9499V34.0001H45.445V33.9499C45.445 31.7272 44.6501 29.7148 39.9348 29.7148C35.2195 29.7148 34.4247 31.6958 34.4247 33.9499Z" fill="white"/>
</svg>
