<svg width="190" height="46" viewBox="0 0 190 46" fill="none" xmlns="http://www.w3.org/2000/svg">
<path fill-rule="evenodd" clip-rule="evenodd" d="M53.4339 0C40.8155 0 35.4094 4.72996 35.4094 14.6394C35.4094 24.5865 40.8577 29.3585 53.4339 29.3585C66.0102 29.3585 71.4585 24.5067 71.4585 14.6394C71.4585 4.77197 66.0524 0 53.4339 0ZM53.4382 8.97263C59.7474 8.97263 60.8109 11.6611 60.8109 14.6394C60.8109 17.6596 59.7052 20.3901 53.4382 20.3901C47.1711 20.3901 46.0654 17.6554 46.0654 14.6394C46.0654 11.6233 47.1289 8.97263 53.4382 8.97263ZM26.2202 36.9486C32.732 36.9486 35.5595 33.1974 35.5595 28.5094C35.5595 25.4094 33.7575 22.8007 31.2591 21.0071C32.6518 19.373 33.5127 17.4995 33.5127 15.6638C33.5127 11.3413 31.5039 8.40503 24.9921 8.40503H0V36.9486H26.2202ZM20.4849 18.4362H10.6518V15.3361H20.4849C21.5484 15.3361 22.8609 15.3361 22.8609 16.8862C22.8609 18.4362 21.5484 18.4362 20.4849 18.4362ZM22.5318 26.1865C23.5953 26.1865 24.9077 26.1865 24.9077 27.6945C24.9077 29.2026 23.5952 29.2026 22.5317 29.2026H10.6518V26.1865H22.5317H22.5318ZM116.759 36.9486H106.107V23.3678L98.2825 36.9486H91.3192L83.4949 23.3678V36.9486H72.8431V8.40503H85.9511L94.8009 24.7163L103.651 8.40503H116.759V36.9486ZM144.615 36.9486C151.126 36.9486 153.954 33.1974 153.954 28.5094C153.954 25.4094 152.152 22.8007 149.653 21.0071C151.046 19.373 151.907 17.4995 151.907 15.6638C151.907 11.3413 149.898 8.40503 143.386 8.40503H118.394V36.9486H144.615ZM138.879 18.4362H129.046V15.3361H138.879C139.943 15.3361 141.255 15.3361 141.255 16.8862C141.255 18.4362 139.943 18.4362 138.879 18.4362ZM140.926 26.1865C141.99 26.1865 143.302 26.1865 143.302 27.6945C143.302 29.2026 141.99 29.2026 140.926 29.2026H129.046V26.1865H140.926ZM153.951 22.6376C153.951 12.7282 159.357 7.99828 171.976 7.99828C184.594 7.99828 190 12.7702 190 22.6376C190 32.505 184.552 37.3568 171.976 37.3568C159.399 37.3568 153.951 32.5848 153.951 22.6376ZM179.353 22.6376C179.353 19.6594 178.289 16.9709 171.98 16.9709C165.671 16.9709 164.607 19.6215 164.607 22.6376C164.607 25.6537 165.713 28.3884 171.98 28.3884C178.247 28.3884 179.353 25.6579 179.353 22.6376ZM82.936 42.0953C82.86 40.6082 81.8725 39.9487 79.9819 39.9487V39.9529C77.9013 39.9529 77.0108 40.7258 77.0108 42.3683C77.0108 44.0108 77.9013 44.7963 79.9819 44.7963C81.881 44.7963 82.86 44.1284 82.936 42.6372H81.1382C81.0707 43.0908 80.7246 43.3177 79.9819 43.3177C78.9479 43.3177 78.7664 42.8682 78.7664 42.3683C78.7664 41.8684 78.9395 41.4316 79.9819 41.4316C80.7246 41.4316 81.0707 41.65 81.1382 42.0953H82.936ZM88.0023 43.2414V44.72H83.1363V40.011H84.892V43.2371H87.998L88.0023 43.2414ZM88.2073 42.3641C88.2073 44.0066 89.0977 44.7921 91.1783 44.7921C93.2504 44.7921 94.1493 43.9982 94.1493 42.3641V40.0159H92.3937V42.3641C92.3937 42.864 92.2122 43.3135 91.1783 43.3135C90.1443 43.3135 89.9629 42.8682 89.9629 42.3641V40.0159H88.2073V42.3641ZM100.283 43.3296C100.283 44.1025 99.8184 44.72 98.7423 44.72H94.4165V40.011H98.5355C99.6116 40.011 99.9408 40.4941 99.9408 41.2082C99.9408 41.5107 99.7973 41.8215 99.5694 42.0904C99.983 42.3844 100.278 42.8171 100.278 43.3296H100.283ZM96.1764 41.6703H97.7969C97.9742 41.6703 98.1894 41.6703 98.1894 41.4141C98.1894 41.1578 97.9742 41.1578 97.7969 41.1578H96.1764V41.6703ZM98.527 43.1952C98.527 42.9473 98.3118 42.9473 98.1346 42.9473H96.1764V43.443H98.1346C98.3118 43.443 98.527 43.443 98.527 43.1952ZM104.814 44.72C105.891 44.72 106.355 44.1025 106.355 43.3296C106.355 42.8171 106.059 42.3844 105.646 42.0904C105.874 41.8215 106.017 41.5107 106.017 41.2082C106.017 40.4941 105.688 40.011 104.612 40.011H100.489V44.72H104.814ZM103.869 41.6703H102.248V41.1578H103.869C104.046 41.1578 104.262 41.1578 104.262 41.4141C104.262 41.6703 104.046 41.6703 103.869 41.6703ZM104.207 42.9473C104.384 42.9473 104.599 42.9473 104.599 43.1952C104.599 43.443 104.384 43.443 104.207 43.443H102.248V42.9473H104.207ZM108.313 44.7249H106.558V40.0159H108.313V44.7249ZM114.679 44.7249V40.0159H112.923V42.7926L110.885 40.0159H108.589V44.7249H110.345V41.9482L112.383 44.7249H114.679ZM117.68 42.1624H120.743V44.7248H119.731L119.604 44.0443C119.203 44.5063 118.583 44.792 117.591 44.792C115.848 44.792 114.823 44.0065 114.823 42.364C114.823 40.7215 115.848 39.9486 117.794 39.9486C119.739 39.9486 120.672 40.6081 120.748 41.8935H118.95C118.882 41.6499 118.536 41.4315 117.794 41.4315C116.751 41.4315 116.578 41.8683 116.578 42.4312C116.578 42.9941 116.76 43.515 117.794 43.515C118.469 43.515 118.882 43.4226 118.95 43.1033H117.68V42.1624ZM128.687 44.1804C129.042 44.3527 129.42 44.5367 129.827 44.7247H129.831L130.506 43.6367C130.228 43.5168 129.966 43.407 129.721 43.3042L129.633 43.2671C129.801 43.0486 129.958 42.8134 130.105 42.5529L128.658 42.0027C128.51 42.2295 128.354 42.4395 128.193 42.6202C127.847 42.4605 127.556 42.3135 127.32 42.1917C128.227 41.9018 128.759 41.5574 128.759 41.0281C128.759 40.3224 127.869 39.9527 126.733 39.9527C125.387 39.9527 124.678 40.3224 124.678 41.0953C124.678 41.4566 124.826 41.7758 125.151 42.1035C124.442 42.2421 123.644 42.553 123.644 43.4267C123.644 44.3004 124.475 44.7919 126.164 44.7919C127.193 44.7919 127.995 44.5903 128.658 44.166L128.687 44.1804ZM125.78 42.6118C126.113 42.8386 126.531 43.0822 127.037 43.3511C126.813 43.4099 126.564 43.4435 126.286 43.4435C125.522 43.4435 125.265 43.2755 125.265 43.0402C125.265 42.8554 125.442 42.7336 125.78 42.6118ZM126.645 41.78C126.379 41.5826 126.299 41.444 126.299 41.3221H126.303C126.303 41.1373 126.442 41.0281 126.733 41.0281C127.024 41.0281 127.138 41.1331 127.138 41.3221C127.138 41.5238 126.97 41.6666 126.645 41.78ZM136.386 39.9486C138.277 39.9486 139.264 40.6081 139.34 42.0952H137.542C137.475 41.6499 137.129 41.4315 136.386 41.4315C135.344 41.4315 135.171 41.8683 135.171 42.3682C135.171 42.8681 135.352 43.3176 136.386 43.3176C137.129 43.3176 137.475 43.0907 137.542 42.6371H139.34C139.264 44.1283 138.285 44.7962 136.386 44.7962C134.306 44.7962 133.415 44.0107 133.415 42.3682C133.415 40.7257 134.306 39.9528 136.386 39.9528V39.9486ZM142.452 39.9486C140.371 39.9486 139.481 40.7299 139.481 42.364C139.481 44.0065 140.38 44.792 142.452 44.792C144.524 44.792 145.423 43.9939 145.423 42.364C145.423 40.7341 144.533 39.9486 142.452 39.9486ZM142.456 41.4273C143.494 41.4273 143.672 41.8725 143.672 42.364C143.672 42.8639 143.49 43.3134 142.456 43.3134C141.422 43.3134 141.241 42.8639 141.241 42.364C141.241 41.8641 141.418 41.4273 142.456 41.4273ZM152.873 44.7249H151.117V42.4859L149.826 44.7249H148.678L147.386 42.4859V44.7249H145.631V40.0159H147.791L149.252 42.7043L150.712 40.0159H152.873V44.7249ZM158.632 44.7249H160.388V40.0159H158.227L156.767 42.7043L155.307 40.0159H153.146V44.7249H154.902V42.4859L156.193 44.7249H157.341L158.632 42.4859V44.7249ZM163.632 44.7921C161.552 44.7921 160.661 44.0066 160.661 42.3641V40.0159H162.417V42.3641C162.417 42.8682 162.599 43.3135 163.632 43.3135C164.666 43.3135 164.848 42.864 164.848 42.3641V40.0159H166.604V42.3641C166.604 43.9982 165.705 44.7921 163.632 44.7921ZM172.971 44.7249V40.0159H171.215V42.7926L169.177 40.0159H166.881V44.7249H168.637V41.9482L170.675 44.7249H172.971ZM174.993 44.7249H173.238V40.0159H174.993V44.7249ZM178.983 41.4946H181.009H181.013V40.0159H175.202V41.4946H177.227V44.7207H178.983V41.4946ZM181.148 40.0159H183.174L184.432 41.7634L185.689 40.0159H187.715L185.309 43.1748V44.7207H183.554V43.1748L181.148 40.0159ZM46.0612 45.4258V45.493H35.4094V45.4258C35.4094 35.5164 40.8577 30.7864 53.4339 30.7864C66.0102 30.7864 71.4585 35.5584 71.4585 45.4258V45.493H60.8067V45.4258C60.8067 42.4517 59.7432 39.7591 53.4339 39.7591C47.1247 39.7591 46.0612 42.4097 46.0612 45.4258Z" fill="black"/>
</svg>
