<svg width="563" height="563" viewBox="0 0 563 563" fill="none" xmlns="http://www.w3.org/2000/svg">
<g clip-path="url(#clip0_106_189)">
<path d="M0 270.24C0 142.847 0 79.1515 39.5757 39.5757C79.1515 0 142.847 0 270.24 0H292.76C420.153 0 483.848 0 523.425 39.5757C563 79.1515 563 142.847 563 270.24V292.76C563 420.153 563 483.848 523.425 523.425C483.848 563 420.153 563 292.76 563H270.24C142.847 563 79.1515 563 39.5757 523.425C0 483.848 0 420.153 0 292.76V270.24Z" fill="white"/>
<path d="M188.859 171.802C179.85 192.561 183.409 229.752 184.85 255.762C175.121 261.307 162.63 251.576 155.558 251.576C148.202 251.576 139.419 256.55 138.037 263.963C137.047 269.307 139.374 277.092 156.069 283.872C162.525 286.498 177.884 289.587 181.442 298.205C186.441 310.314 155.769 366.21 107.605 374.365C105.786 374.674 104.143 375.664 102.99 377.143C101.838 378.623 101.257 380.488 101.359 382.381C102.2 397.44 135.02 403.34 149.568 405.657C151.054 407.727 152.255 416.469 154.162 423.125C155.018 426.106 157.225 429.674 162.9 429.674C170.302 429.674 182.598 423.805 204.007 427.45C224.996 431.049 244.724 461.661 282.604 461.661C317.811 461.661 338.815 430.91 359.023 427.45C370.719 425.458 380.763 426.091 391.993 428.346C399.725 429.906 406.661 430.771 408.868 422.956C410.805 416.206 411.991 407.634 413.447 405.611C427.86 403.309 460.83 397.425 461.656 382.366C461.759 380.473 461.178 378.607 460.025 377.128C458.872 375.648 457.229 374.659 455.41 374.35C408.057 366.318 376.454 310.592 381.573 298.19C385.117 289.587 400.37 286.529 406.946 283.857C419.168 278.899 425.293 272.798 425.158 265.74C424.993 256.704 414.423 251.314 406.646 251.314C398.734 251.314 387.369 260.952 378.165 255.731C379.607 229.505 383.15 192.483 374.157 171.74C357.116 132.464 319.207 112.601 281.312 112.601C243.658 112.601 206.034 132.186 188.859 171.802Z" fill="black"/>
</g>
<defs>
<clipPath id="clip0_106_189">
<rect width="563" height="563" rx="4.75902" fill="white"/>
</clipPath>
</defs>
</svg>
