<svg width="563" height="563" viewBox="0 0 563 563" fill="none" xmlns="http://www.w3.org/2000/svg">
<g clip-path="url(#clip0_106_169)">
<path d="M0 270.24C0 142.847 0 79.1515 39.5757 39.5757C79.1515 0 142.847 0 270.24 0H292.76C420.153 0 483.848 0 523.425 39.5757C563 79.1515 563 142.847 563 270.24V292.76C563 420.153 563 483.848 523.425 523.425C483.848 563 420.153 563 292.76 563H270.24C142.847 563 79.1515 563 39.5757 523.425C0 483.848 0 420.153 0 292.76V270.24Z" fill="white"/>
<path d="M298.64 405.359C167.839 405.359 93.2327 316.597 90.124 168.899H155.644C157.797 277.306 206.099 323.225 244.359 332.693V168.899H306.056V262.394C343.837 258.37 383.527 215.764 396.919 168.899H458.614C448.332 226.653 405.289 269.258 374.681 286.774C405.289 300.975 454.312 338.137 472.964 405.359H405.05C390.463 360.386 354.12 325.592 306.056 320.858V405.359H298.64Z" fill="black"/>
</g>
<defs>
<clipPath id="clip0_106_169">
<rect width="563" height="563" fill="white"/>
</clipPath>
</defs>
</svg>
