<svg width="563" height="563" viewBox="0 0 563 563" fill="none" xmlns="http://www.w3.org/2000/svg">
<g clip-path="url(#clip0_106_168)">
<path d="M225.199 363.573V199.423L371.579 281.498L225.199 363.573Z" fill="#060F27"/>
<path d="M551.121 149.848C547.918 138.286 541.644 127.743 532.929 119.276C524.213 110.809 513.361 104.715 501.459 101.602C457.628 90.0781 281.499 90.0781 281.499 90.0781C281.499 90.0781 105.37 90.0781 61.5387 101.602C49.6367 104.715 38.7849 110.809 30.0694 119.276C21.3539 127.743 15.0804 138.286 11.8767 149.848C3.69247 193.274 -0.279134 237.351 0.014152 281.498C-0.279134 325.645 3.69247 369.722 11.8767 413.148C15.0804 424.711 21.3539 435.253 30.0694 443.72C38.7849 452.187 49.6367 458.282 61.5387 461.394C105.37 472.918 281.499 472.918 281.499 472.918C281.499 472.918 457.628 472.918 501.459 461.394C513.361 458.282 524.213 452.187 532.929 443.72C541.644 435.253 547.918 424.711 551.121 413.148C559.306 369.722 563.277 325.645 562.984 281.498C563.277 237.351 559.306 193.274 551.121 149.848ZM225.202 363.535V199.461L371.373 281.498L225.202 363.535Z" fill="white"/>
</g>
<defs>
<clipPath id="clip0_106_168">
<rect width="563" height="563" fill="white"/>
</clipPath>
</defs>
</svg>
